<svg width="167" height="276" viewBox="0 0 167 276" fill="none" xmlns="http://www.w3.org/2000/svg">
<path fill-rule="evenodd" clip-rule="evenodd" d="M137.84 1.71931C163.67 0.488839 193.476 -4.28246 213.498 10.4489C233.722 25.3288 222.444 57.5486 238.715 75.938C259.453 99.3781 307.602 99.8053 317.791 128.326C327.233 154.758 304.558 183.351 284.669 204.581C266.144 224.355 236.866 231.026 211.003 242.316C186.958 252.813 164.143 264.413 137.84 268.679C107.749 273.56 74.3456 282.256 47.6734 268.807C20.9936 255.355 5.99688 226.639 0.715342 199.541C-4.06034 175.037 16.4822 152.966 20.2938 128.326C23.4438 107.963 13.0612 86.9462 21.1094 67.7036C29.7183 47.1203 45.9701 29.1446 66.6705 17.4432C87.7122 5.54894 113.023 2.90149 137.84 1.71931Z" fill="#1B71F4"/>
</svg>
