<svg width="261" height="380" viewBox="0 0 261 380" fill="none" xmlns="http://www.w3.org/2000/svg">
<path fill-rule="evenodd" clip-rule="evenodd" d="M2.16223 0.625147C35.9308 0.677232 65.1699 17.6863 97.369 26.8181C138.846 38.5812 189.163 34.1925 219.419 62.2402C250.304 90.8721 268.032 136.206 257.01 174.809C245.898 213.727 185.633 223.482 163.421 258.364C141.053 293.49 168.397 352.35 130.238 373.893C92.6503 395.113 46.5343 350.98 2.16223 349.403C-39.7114 347.915 -84.1758 384.225 -120.188 364.993C-156.331 345.691 -156.691 297.992 -163.772 260.786C-169.258 231.961 -152.403 203.832 -156.385 174.809C-161.161 140.004 -203.123 108.428 -189.173 75.6711C-175.799 44.2675 -127.56 39.9876 -93.2337 26.5241C-62.2646 14.3773 -31.6353 0.573018 2.16223 0.625147Z" fill="#1B71F5"/>
</svg>
