<svg width="198" height="252" viewBox="0 0 198 252" fill="none" xmlns="http://www.w3.org/2000/svg">
<path fill-rule="evenodd" clip-rule="evenodd" d="M26.7838 9.7629e-05C49.1818 0.0346444 68.5755 11.3164 89.9325 17.3734C117.443 25.1756 150.817 22.2646 170.885 40.8681C191.371 59.859 203.129 89.9278 195.819 115.533C188.448 141.346 148.476 147.817 133.743 170.953C118.907 194.251 137.044 233.292 111.734 247.581C86.8026 261.656 56.2148 232.383 26.7838 231.337C-0.990158 230.35 -30.4825 254.434 -54.3688 241.678C-78.3417 228.875 -78.5801 197.237 -83.277 172.559C-86.9158 153.441 -75.736 134.783 -78.3775 115.533C-81.5452 92.447 -109.378 71.5037 -100.125 49.7765C-91.2539 28.9471 -59.2581 26.1084 -36.4904 17.1784C-15.9492 9.12164 4.36653 -0.0344788 26.7838 9.7629e-05Z" fill="#1B71F5"/>
</svg>
