<svg width="314" height="373" viewBox="0 0 314 373" fill="none" xmlns="http://www.w3.org/2000/svg">
<path fill-rule="evenodd" clip-rule="evenodd" d="M72.0154 0.00014473C103.671 0.0513585 131.081 16.7759 161.266 25.7551C200.147 37.3214 247.316 33.0061 275.679 60.5847C304.632 88.7377 321.251 133.313 310.918 171.271C300.501 209.538 244.007 219.13 223.185 253.428C202.217 287.967 227.85 345.842 192.078 367.025C156.842 387.89 113.611 344.495 72.0154 342.945C32.7616 341.482 -8.92093 377.185 -42.6803 358.274C-76.5619 339.295 -76.8989 292.394 -83.5372 255.81C-88.68 227.467 -72.8793 199.809 -76.6125 171.271C-81.0895 137.048 -120.426 106 -107.349 73.791C-94.8112 42.9125 -49.5904 38.7043 -17.4121 25.466C11.6195 13.5223 40.3324 -0.051113 72.0154 0.00014473Z" fill="#1B71F5"/>
</svg>
