<svg width="228" height="391" viewBox="0 0 228 391" fill="none" xmlns="http://www.w3.org/2000/svg">
<path fill-rule="evenodd" clip-rule="evenodd" d="M195.02 2.43013C231.53 0.690941 273.658 -6.05296 301.958 14.7688C330.544 35.8006 314.603 81.341 337.6 107.333C366.913 140.464 434.968 141.068 449.369 181.381C462.715 218.74 430.665 259.155 402.554 289.161C376.37 317.111 334.987 326.539 298.431 342.497C264.445 357.334 232.197 373.73 195.02 379.76C152.488 386.658 105.275 398.949 67.5762 379.941C29.8661 360.927 8.66926 320.339 1.20416 282.037C-5.54594 247.403 23.4896 216.207 28.8769 181.381C33.3293 152.599 18.6542 122.893 30.0297 95.6945C42.1979 66.6013 65.1687 41.1939 94.4273 24.6548C124.168 7.84305 159.943 4.10107 195.02 2.43013Z" fill="#1B71F4"/>
</svg>
