<svg width="293" height="384" viewBox="0 0 293 384" fill="none" xmlns="http://www.w3.org/2000/svg">
<path fill-rule="evenodd" clip-rule="evenodd" d="M182.632 2.38949C216.858 0.679385 256.35 -5.95173 282.88 14.5218C309.677 35.2018 294.734 79.9806 316.292 105.538C343.77 138.115 407.568 138.709 421.068 178.347C433.578 215.081 403.534 254.82 377.182 284.325C352.636 311.807 313.842 321.078 279.573 336.769C247.714 351.357 217.484 367.479 182.632 373.408C142.762 380.191 98.5027 392.277 63.1621 373.587C27.8114 354.891 7.94065 314.982 0.942616 277.32C-5.38516 243.266 21.8338 212.591 26.884 178.347C31.0578 150.047 17.3009 120.837 27.9647 94.094C39.3716 65.4874 60.9052 40.5049 88.3332 24.2425C116.214 7.71188 149.75 4.03248 182.632 2.38949Z" fill="#1B71F4"/>
</svg>
